<svg style="" width="21.984375" height="22.007812" version="1.1" xmlns="http://www.w3.org/2000/svg">
<path d="M10.992188 -0.000000 C9.460930 -0.000000 8.031257 0.289060 6.703125 0.867188 C5.359368 1.429690 4.191411 2.210932 3.199219 3.210938 C2.207026 4.210943 1.421878 5.374993 0.843750 6.703125 C0.281247 8.046882 0.000000 9.476555 0.000000 10.992188 C0.000000 12.523445 0.281247 13.953118 0.843750 15.281250 C1.421878 16.625007 2.207026 17.792964 3.199219 18.785156 C4.191411 19.777349 5.359368 20.562497 6.703125 21.140625 C8.031257 21.718753 9.460930 22.007812 10.992188 22.007812 C12.523445 22.007812 13.953118 21.718753 15.281250 21.140625 C16.625007 20.562497 17.792964 19.777349 18.785156 18.785156 C19.777349 17.792964 20.562497 16.625007 21.140625 15.281250 C21.703128 13.953118 21.984375 12.523445 21.984375 10.992188 C21.984375 9.476555 21.703128 8.046882 21.140625 6.703125 C20.562497 5.374993 19.777349 4.210943 18.785156 3.210938 C17.792964 2.210932 16.625007 1.429690 15.281250 0.867188 C13.953118 0.289060 12.523445 -0.000000 10.992188 -0.000000 Z M10.992188 19.992188 C9.742181 19.992188 8.570318 19.757815 7.476562 19.289062 C6.382807 18.820310 5.429692 18.179692 4.617188 17.367188 C3.804683 16.554683 3.164065 15.601568 2.695312 14.507812 C2.226560 13.414057 1.992188 12.242194 1.992188 10.992188 C1.992188 9.742181 2.226560 8.570318 2.695312 7.476562 C3.164065 6.382807 3.804683 5.429692 4.617188 4.617188 C5.429692 3.804683 6.382807 3.164065 7.476562 2.695312 C8.570318 2.226560 9.742181 1.992188 10.992188 1.992188 C12.242194 1.992188 13.414057 2.226560 14.507812 2.695312 C15.601568 3.164065 16.554683 3.804683 17.367188 4.617188 C18.179692 5.429692 18.820310 6.382807 19.289062 7.476562 C19.757815 8.570318 19.992188 9.742181 19.992188 10.992188 C19.992188 12.242194 19.757815 13.414057 19.289062 14.507812 C18.820310 15.601568 18.179692 16.554683 17.367188 17.367188 C16.554683 18.179692 15.601568 18.820310 14.507812 19.289062 C13.414057 19.757815 12.242194 19.992188 10.992188 19.992188 Z M9.000000 7.007812 C8.687498 7.007812 8.441407 7.097655 8.261719 7.277344 C8.082030 7.457032 7.992188 7.695311 7.992188 7.992188 L7.992188 13.992188 C7.992188 14.304689 8.082030 14.550780 8.261719 14.730469 C8.441407 14.910157 8.687498 15.000000 9.000000 15.000000 C9.296876 15.000000 9.535155 14.910157 9.714844 14.730469 C9.894532 14.550780 9.984375 14.304689 9.984375 13.992188 L9.984375 7.992188 C9.984375 7.695311 9.894532 7.457032 9.714844 7.277344 C9.535155 7.097655 9.296876 7.007812 9.000000 7.007812 Z M12.984375 7.007812 C12.687499 7.007812 12.449220 7.097655 12.269531 7.277344 C12.089843 7.457032 12.000000 7.695311 12.000000 7.992188 L12.000000 13.992188 C12.000000 14.304689 12.089843 14.550780 12.269531 14.730469 C12.449220 14.910157 12.687499 15.000000 12.984375 15.000000 C13.296877 15.000000 13.542968 14.910157 13.722656 14.730469 C13.902345 14.550780 13.992188 14.304689 13.992188 13.992188 L13.992188 7.992188 C13.992188 7.695311 13.902345 7.457032 13.722656 7.277344 C13.542968 7.097655 13.296877 7.007812 12.984375 7.007812 Z M22.992188 21.000000" style="fill:black"/>
</svg>