<svg style="" width="21.984375" height="22.007812" version="1.1" xmlns="http://www.w3.org/2000/svg">
<path d="M10.992188 -0.000000 C9.460930 -0.000000 8.031257 0.289060 6.703125 0.867188 C5.359368 1.429690 4.191411 2.210932 3.199219 3.210938 C2.207026 4.210943 1.421878 5.374993 0.843750 6.703125 C0.281247 8.046882 0.000000 9.476555 0.000000 10.992188 C0.000000 12.523445 0.281247 13.953118 0.843750 15.281250 C1.421878 16.625007 2.207026 17.792964 3.199219 18.785156 C4.191411 19.777349 5.359368 20.562497 6.703125 21.140625 C8.031257 21.718753 9.460930 22.007812 10.992188 22.007812 C12.523445 22.007812 13.953118 21.718753 15.281250 21.140625 C16.625007 20.562497 17.792964 19.777349 18.785156 18.785156 C19.777349 17.792964 20.562497 16.625007 21.140625 15.281250 C21.703128 13.953118 21.984375 12.523445 21.984375 10.992188 C21.984375 9.476555 21.703128 8.046882 21.140625 6.703125 C20.562497 5.374993 19.777349 4.210943 18.785156 3.210938 C17.792964 2.210932 16.625007 1.429690 15.281250 0.867188 C13.953118 0.289060 12.523445 -0.000000 10.992188 -0.000000 Z M10.992188 19.992188 C9.742181 19.992188 8.570318 19.757815 7.476562 19.289062 C6.382807 18.820310 5.429692 18.179692 4.617188 17.367188 C3.804683 16.554683 3.164065 15.601568 2.695312 14.507812 C2.226560 13.414057 1.992188 12.242194 1.992188 10.992188 C1.992188 9.742181 2.226560 8.570318 2.695312 7.476562 C3.164065 6.382807 3.804683 5.429692 4.617188 4.617188 C5.429692 3.804683 6.382807 3.164065 7.476562 2.695312 C8.570318 2.226560 9.742181 1.992188 10.992188 1.992188 C12.242194 1.992188 13.414057 2.226560 14.507812 2.695312 C15.601568 3.164065 16.554683 3.804683 17.367188 4.617188 C18.179692 5.429692 18.820310 6.382807 19.289062 7.476562 C19.757815 8.570318 19.992188 9.742181 19.992188 10.992188 C19.992188 12.242194 19.757815 13.414057 19.289062 14.507812 C18.820310 15.601568 18.179692 16.554683 17.367188 17.367188 C16.554683 18.179692 15.601568 18.820310 14.507812 19.289062 C13.414057 19.757815 12.242194 19.992188 10.992188 19.992188 Z M15.585938 10.195312 L9.585938 6.210938 C9.445312 6.101562 9.281251 6.046875 9.093750 6.046875 C8.906249 6.046875 8.742188 6.101562 8.601562 6.210938 C8.398436 6.257813 8.246094 6.351562 8.144531 6.492188 C8.042968 6.632813 7.992188 6.804686 7.992188 7.007812 L7.992188 15.000000 C7.992188 15.203126 8.039062 15.378906 8.132812 15.527344 C8.226563 15.675782 8.343749 15.796875 8.484375 15.890625 C8.593751 15.953125 8.679687 15.988281 8.742188 15.996094 C8.804688 16.003906 8.890624 16.007812 9.000000 16.007812 C9.093750 16.007812 9.191406 15.984375 9.292969 15.937500 C9.394532 15.890625 9.492187 15.843750 9.585938 15.796875 L15.585938 11.789062 C15.742188 11.695312 15.847656 11.578126 15.902344 11.437500 C15.957032 11.296874 15.984375 11.148438 15.984375 10.992188 C15.984375 10.851562 15.945313 10.710938 15.867188 10.570312 C15.789062 10.429687 15.695313 10.304688 15.585938 10.195312 Z M9.984375 13.101562 L9.984375 8.906250 L13.195312 10.992188 L9.984375 13.101562 Z M22.992188 21.000000" style="fill:black"/>
</svg>