{"accessors" : [{"bufferView" : 0, "byteOffset" : 0, "componentType" : 5123, "count" : 3648, "type" : "SCALAR", "max" : [3192], "min" : [0]}, {"bufferView" : 1, "byteOffset" : 0, "componentType" : 5126, "count" : 3193, "type" : "VEC3", "max" : [1.4196891784667969, 0.13404299318790436, 0.01295336801558733], "min" : [0.07599309086799622, 0, -0.5942956805229187], "name" : "POSITION"}, {"bufferView" : 1, "byteOffset" : 12, "componentType" : 5126, "count" : 3193, "type" : "VEC3", "max" : [1.0000042915344238, 1.0000044107437134, 1.0000044107437134], "min" : [-1.0000044107437134, -1.0000044107437134, -1.0000044107437134], "name" : "NORMAL"}, {"bufferView" : 1, "byteOffset" : 24, "componentType" : 5126, "count" : 3193, "type" : "VEC2", "max" : [1, 1], "min" : [0, 1], "name" : "TEXCOORD_0"}], "asset" : {"generator" : "Aspose.3D 22.7", "version" : "2.0"}, "buffers" : [{"uri" : "data:application/octet-stream;base64,", "byteLength" : 124040}], "bufferViews" : [{"buffer" : 0, "byteOffset" : 0, "byteLength" : 7296, "target" : 34963}, {"buffer" : 0, "byteOffset" : 7300, "byteLength" : 116736, "byteStride" : 32, "target" : 34962}], "materials" : [{"name" : "Material.004", "pbrMetallicRoughness" : {"baseColorFactor" : [0.04654678702354431, 0.20441031455993652, 0.8000000715255737, 1], "metallicFactor" : 0, "roughnessFactor" : 0.5}, "emissiveFactor" : [0, 0, 0], "alphaMode" : "OPAQUE", "doubleSided" : true}], "meshes" : [{"primitives" : [{"attributes" : {"POSITION" : 1, "NORMAL" : 2, "TEXCOORD_0" : 3}, "indices" : 0, "material" : 0, "mode" : 4}]}], "nodes" : [{"matrix" : [0, 0, 0, 0, 0, 0, 0, 0, 0, 0, 0, 0, 0.12286952883005142, 0.03455467149615288, -0.3817518353462219, 1], "mesh" : 0, "name" : "Text"}], "scene" : 0, "scenes" : [{"nodes" : [0]}]}