{"accessors" : [{"bufferView" : 0, "byteOffset" : 0, "componentType" : 5123, "count" : 2754, "type" : "SCALAR", "max" : [2417], "min" : [0]}, {"bufferView" : 1, "byteOffset" : 0, "componentType" : 5126, "count" : 2418, "type" : "VEC3", "max" : [0.2391502857208252, 0.10677308589220047, 0.3550151288509369], "min" : [-0.7638497352600098, -0.04425085335969925, -0.34498491883277893], "name" : "POSITION"}, {"bufferView" : 1, "byteOffset" : 12, "componentType" : 5126, "count" : 2418, "type" : "VEC3", "max" : [1.0000042915344238, 1.0000044107437134, 1.0000044107437134], "min" : [-1.0000044107437134, -1.0000044107437134, -1.0000044107437134], "name" : "NORMAL"}, {"bufferView" : 1, "byteOffset" : 24, "componentType" : 5126, "count" : 2418, "type" : "VEC2", "max" : [1, 1], "min" : [0, 1], "name" : "TEXCOORD_0"}, {"bufferView" : 0, "byteOffset" : 5508, "componentType" : 5123, "count" : 372, "type" : "SCALAR", "max" : [311], "min" : [0]}, {"bufferView" : 2, "byteOffset" : 0, "componentType" : 5126, "count" : 312, "type" : "VEC3", "max" : [0.4707670211791992, 0.022490262985229492, 0.7914911508560181], "min" : [-1.0950040817260742, -0.11099185049533844, -0.7742799520492554], "name" : "POSITION"}, {"bufferView" : 2, "byteOffset" : 12, "componentType" : 5126, "count" : 312, "type" : "VEC3", "max" : [0.9951890707015991, 1.0000044107437134, 0.9951890707015991], "min" : [-0.9951890110969543, -1.0000044107437134, -0.9951890707015991], "name" : "NORMAL"}, {"bufferView" : 2, "byteOffset" : 24, "componentType" : 5126, "count" : 312, "type" : "VEC2", "max" : [1, 0.9900000095367432], "min" : [0, 0], "name" : "TEXCOORD_0"}], "asset" : {"generator" : "Aspose.3D 22.7", "version" : "2.0"}, "buffers" : [{"uri" : "data:application/octet-stream;base64,", "byteLength" : 106296}], "bufferViews" : [{"buffer" : 0, "byteOffset" : 0, "byteLength" : 6252, "target" : 34963}, {"buffer" : 0, "byteOffset" : 6256, "byteLength" : 88128, "byteStride" : 32, "target" : 34962}, {"buffer" : 0, "byteOffset" : 94388, "byteLength" : 11904, "byteStride" : 32, "target" : 34962}], "materials" : [{"name" : "Material.003", "pbrMetallicRoughness" : {"baseColorFactor" : [0.5972021818161011, 0.7304609417915344, 0.7454044222831726, 1], "metallicFactor" : 0, "roughnessFactor" : 0.5}, "emissiveFactor" : [0, 0, 0], "alphaMode" : "OPAQUE", "doubleSided" : true}, {"name" : "Material.004", "pbrMetallicRoughness" : {"baseColorFactor" : [0.04654678702354431, 0.20441031455993652, 0.8000000715255737, 1], "metallicFactor" : 0, "roughnessFactor" : 0.5}, "emissiveFactor" : [0, 0, 0], "alphaMode" : "OPAQUE", "doubleSided" : true}], "meshes" : [{"primitives" : [{"attributes" : {"POSITION" : 1, "NORMAL" : 2, "TEXCOORD_0" : 3}, "indices" : 0, "material" : 0, "mode" : 4}, {"attributes" : {"POSITION" : 5, "NORMAL" : 6, "TEXCOORD_0" : 7}, "indices" : 4, "material" : 1, "mode" : 4}]}], "nodes" : [{"matrix" : [0, 0, 0, 0, 0, 0, 0, 0, 0, 0, 0, 0, 0.09567593783140182, 0.02655748464167118, -0.2347286492586136, 1], "mesh" : 0, "name" : "Text.003"}], "scene" : 0, "scenes" : [{"nodes" : [0]}]}