{"accessors" : [{"bufferView" : 0, "byteOffset" : 0, "componentType" : 5123, "count" : 20850, "type" : "SCALAR", "max" : [17531], "min" : [0]}, {"bufferView" : 1, "byteOffset" : 0, "componentType" : 5126, "count" : 17532, "type" : "VEC3", "max" : [3.1647863388061523, 0.8979570269584656, 3.2811460494995117], "min" : [-3.2852749824523926, -17.503753662109375, -3.407155990600586], "name" : "POSITION"}, {"bufferView" : 1, "byteOffset" : 12, "componentType" : 5126, "count" : 17532, "type" : "VEC3", "max" : [0.9999966621398926, 0.9997791051864624, 0.9995525479316711], "min" : [-0.9999966621398926, -0.9998464584350586, -0.999552309513092], "name" : "NORMAL"}, {"bufferView" : 1, "byteOffset" : 24, "componentType" : 5126, "count" : 17532, "type" : "VEC2", "max" : [1.0000001192092896, 1], "min" : [0, 0], "name" : "TEXCOORD_0"}], "asset" : {"generator" : "Aspose.3D 22.7", "version" : "2.0"}, "buffers" : [{"uri" : "data:application/octet-stream;base64,", "byteLength" : 708908}], "bufferViews" : [{"buffer" : 0, "byteOffset" : 0, "byteLength" : 41700, "target" : 34963}, {"buffer" : 0, "byteOffset" : 41704, "byteLength" : 667200, "byteStride" : 32, "target" : 34962}], "materials" : [{"name" : "Material.004", "pbrMetallicRoughness" : {"baseColorFactor" : [0.04654678702354431, 0.20441031455993652, 0.8000000715255737, 1], "metallicFactor" : 0, "roughnessFactor" : 0.5}, "emissiveFactor" : [0, 0, 0], "alphaMode" : "OPAQUE", "doubleSided" : true}], "meshes" : [{"primitives" : [{"attributes" : {"POSITION" : 1, "NORMAL" : 2, "TEXCOORD_0" : 3}, "indices" : 0, "material" : 0, "mode" : 4}]}], "nodes" : [{"matrix" : [0.016550391716092475, -0.00015851633243300377, -0.00014102865837538266, 0, -2.0827688320499823E-05, -0.0021019616317005654, -8.162286783994587E-05, 0, -4.879244499392601E-05, 0.00023300518727033877, -0.005987926456258647, 0, -0.08521725237369537, 0.02915387786924839, -0.0645969957113266, 1], "mesh" : 0, "name" : "Sphere.013"}], "scene" : 0, "scenes" : [{"nodes" : [0]}]}