{"accessors" : [{"bufferView" : 0, "byteOffset" : 0, "componentType" : 5123, "count" : 4812, "type" : "SCALAR", "max" : [4112], "min" : [0]}, {"bufferView" : 1, "byteOffset" : 0, "componentType" : 5126, "count" : 4113, "type" : "VEC3", "max" : [1.000000238418579, 1.000000238418579, 0.9999990463256836], "min" : [-1.395473837852478, -1, -0.9999993443489075], "name" : "POSITION"}, {"bufferView" : 1, "byteOffset" : 12, "componentType" : 5126, "count" : 4113, "type" : "VEC3", "max" : [0.9904428124427795, 0.9951428771018982, 0.9904428720474243], "min" : [-0.9904430508613586, -0.9951431155204773, -0.9904432892799377], "name" : "NORMAL"}, {"bufferView" : 1, "byteOffset" : 24, "componentType" : 5126, "count" : 4113, "type" : "VEC2", "max" : [1.0000001192092896, 1], "min" : [0, 0], "name" : "TEXCOORD_0"}], "asset" : {"generator" : "Aspose.3D 22.7", "version" : "2.0"}, "buffers" : [{"uri" : "data:application/octet-stream;base64,", "byteLength" : 163616}], "bufferViews" : [{"buffer" : 0, "byteOffset" : 0, "byteLength" : 9624, "target" : 34963}, {"buffer" : 0, "byteOffset" : 9628, "byteLength" : 153984, "byteStride" : 32, "target" : 34962}], "meshes" : [{"primitives" : [{"attributes" : {"POSITION" : 1, "NORMAL" : 2, "TEXCOORD_0" : 3}, "indices" : 0, "mode" : 4}]}], "nodes" : [{"matrix" : [0, 0, 0, 0, 0, 0, 0, 0, 0, 0, 0, 0, 0.12778888642787933, 0.01333688572049141, -0.006606999784708023, 1], "mesh" : 0, "name" : "Sphere.003"}], "scene" : 0, "scenes" : [{"nodes" : [0]}]}