{"accessors" : [{"bufferView" : 0, "byteOffset" : 0, "componentType" : 5123, "count" : 6210, "type" : "SCALAR", "max" : [5305], "min" : [0]}, {"bufferView" : 1, "byteOffset" : 0, "componentType" : 5126, "count" : 5306, "type" : "VEC3", "max" : [1.0000007152557373, 0.9999998807907104, 1.005340337753296], "min" : [-1.3226171731948853, -0.9999998807907104, -1.280122995376587], "name" : "POSITION"}, {"bufferView" : 1, "byteOffset" : 12, "componentType" : 5126, "count" : 5306, "type" : "VEC3", "max" : [0.9904428720474243, 0.9999074935913086, 0.9951848983764648], "min" : [-0.9904434680938721, -0.9999074339866638, -0.995185375213623], "name" : "NORMAL"}, {"bufferView" : 1, "byteOffset" : 24, "componentType" : 5126, "count" : 5306, "type" : "VEC2", "max" : [1.0000001192092896, 1], "min" : [0, 0], "name" : "TEXCOORD_0"}], "asset" : {"generator" : "Aspose.3D 22.7", "version" : "2.0"}, "buffers" : [{"uri" : "data:application/octet-stream;base64,", "byteLength" : 211148}], "bufferViews" : [{"buffer" : 0, "byteOffset" : 0, "byteLength" : 12420, "target" : 34963}, {"buffer" : 0, "byteOffset" : 12424, "byteLength" : 198720, "byteStride" : 32, "target" : 34962}], "meshes" : [{"primitives" : [{"attributes" : {"POSITION" : 1, "NORMAL" : 2, "TEXCOORD_0" : 3}, "indices" : 0, "mode" : 4}]}], "nodes" : [{"matrix" : [0, 0, 0, 0, 0, 0, 0, 0, 0, 0, 0, 0, 0.15335613489151, 0.056689660996198654, -0.006606999784708023, 1], "mesh" : 0, "name" : "Sphere.006"}], "scene" : 0, "scenes" : [{"nodes" : [0]}]}