{"accessors" : [{"bufferView" : 0, "byteOffset" : 0, "componentType" : 5123, "count" : 7062, "type" : "SCALAR", "max" : [6079], "min" : [0]}, {"bufferView" : 1, "byteOffset" : 0, "componentType" : 5126, "count" : 6080, "type" : "VEC3", "max" : [1.440098524093628, 0.9999999403953552, 0.9999993443489075], "min" : [-1.4419913291931152, -0.9999999403953552, -1.696821689605713], "name" : "POSITION"}, {"bufferView" : 1, "byteOffset" : 12, "componentType" : 5126, "count" : 6080, "type" : "VEC3", "max" : [0.9904427528381348, 0.995142936706543, 0.9904428124427795], "min" : [-0.9904429912567139, -0.995142936706543, -0.9904432892799377], "name" : "NORMAL"}, {"bufferView" : 1, "byteOffset" : 24, "componentType" : 5126, "count" : 6080, "type" : "VEC2", "max" : [1.0000001192092896, 1], "min" : [0, 0], "name" : "TEXCOORD_0"}], "asset" : {"generator" : "Aspose.3D 22.7", "version" : "2.0"}, "buffers" : [{"uri" : "data:application/octet-stream;base64,", "byteLength" : 240116}], "bufferViews" : [{"buffer" : 0, "byteOffset" : 0, "byteLength" : 14124, "target" : 34963}, {"buffer" : 0, "byteOffset" : 14128, "byteLength" : 225984, "byteStride" : 32, "target" : 34962}], "meshes" : [{"primitives" : [{"attributes" : {"POSITION" : 1, "NORMAL" : 2, "TEXCOORD_0" : 3}, "indices" : 0, "mode" : 4}]}], "nodes" : [{"matrix" : [0, 0, 0, 0, 0, 0, 0, 0, 0, 0, 0, 0, 0.0044175973162055016, 0.024910004809498787, -0.006607353687286377, 1], "mesh" : 0, "name" : "Sphere.001"}], "scene" : 0, "scenes" : [{"nodes" : [0]}]}