{"accessors" : [{"bufferView" : 0, "byteOffset" : 0, "componentType" : 5123, "count" : 2292, "type" : "SCALAR", "max" : [1914], "min" : [0]}, {"bufferView" : 1, "byteOffset" : 0, "componentType" : 5126, "count" : 1915, "type" : "VEC3", "max" : [1.1552677154541016, 0.35334306955337524, 1.1792399883270264], "min" : [-1.3379167318344116, -0.007710140198469162, -1.1069021224975586], "name" : "POSITION"}, {"bufferView" : 1, "byteOffset" : 12, "componentType" : 5126, "count" : 1915, "type" : "VEC3", "max" : [0.999987006187439, 0.9999946355819702, 0.9999209046363831], "min" : [-0.9999621510505676, -0.9999946355819702, -1.0000042915344238], "name" : "NORMAL"}, {"bufferView" : 1, "byteOffset" : 24, "componentType" : 5126, "count" : 1915, "type" : "VEC2", "max" : [0, 1], "min" : [0, 1], "name" : "TEXCOORD_0"}, {"bufferView" : 0, "byteOffset" : 4584, "componentType" : 5123, "count" : 2292, "type" : "SCALAR", "max" : [1914], "min" : [0]}, {"bufferView" : 2, "byteOffset" : 0, "componentType" : 5126, "count" : 1915, "type" : "VEC3", "max" : [1.1552677154541016, 0.35334306955337524, 1.1792399883270264], "min" : [-1.3379167318344116, -0.007710140198469162, -1.1069021224975586], "name" : "POSITION"}, {"bufferView" : 2, "byteOffset" : 12, "componentType" : 5126, "count" : 1915, "type" : "VEC3", "max" : [0.999987006187439, 0.9999946355819702, 0.9999209046363831], "min" : [-0.9999621510505676, -0.9999946355819702, -1.0000042915344238], "name" : "NORMAL"}, {"bufferView" : 2, "byteOffset" : 24, "componentType" : 5126, "count" : 1915, "type" : "VEC2", "max" : [0, 1], "min" : [0, 1], "name" : "TEXCOORD_0"}, {"bufferView" : 0, "byteOffset" : 9168, "componentType" : 5123, "count" : 2292, "type" : "SCALAR", "max" : [1914], "min" : [0]}, {"bufferView" : 3, "byteOffset" : 0, "componentType" : 5126, "count" : 1915, "type" : "VEC3", "max" : [1.1552677154541016, 0.35334306955337524, 1.1792399883270264], "min" : [-1.3379167318344116, -0.007710140198469162, -1.1069021224975586], "name" : "POSITION"}, {"bufferView" : 3, "byteOffset" : 12, "componentType" : 5126, "count" : 1915, "type" : "VEC3", "max" : [0.999987006187439, 0.9999946355819702, 0.9999209046363831], "min" : [-0.9999621510505676, -0.9999946355819702, -1.0000042915344238], "name" : "NORMAL"}, {"bufferView" : 3, "byteOffset" : 24, "componentType" : 5126, "count" : 1915, "type" : "VEC2", "max" : [0, 1], "min" : [0, 1], "name" : "TEXCOORD_0"}], "asset" : {"generator" : "Aspose.3D 22.7", "version" : "2.0"}, "buffers" : [{"uri" : "data:application/octet-stream;base64,", "byteLength" : 233800}], "bufferViews" : [{"buffer" : 0, "byteOffset" : 0, "byteLength" : 13752, "target" : 34963}, {"buffer" : 0, "byteOffset" : 13756, "byteLength" : 73344, "byteStride" : 32, "target" : 34962}, {"buffer" : 0, "byteOffset" : 87104, "byteLength" : 73344, "byteStride" : 32, "target" : 34962}, {"buffer" : 0, "byteOffset" : 160452, "byteLength" : 73344, "byteStride" : 32, "target" : 34962}], "materials" : [{"name" : "Material.004", "pbrMetallicRoughness" : {"baseColorFactor" : [0.04654678702354431, 0.20441031455993652, 0.8000000715255737, 1], "metallicFactor" : 0, "roughnessFactor" : 0.5}, "emissiveFactor" : [0, 0, 0], "alphaMode" : "OPAQUE", "doubleSided" : true}, {"name" : "Material.002", "pbrMetallicRoughness" : {"baseColorFactor" : [0.23074007034301758, 0.49693310260772705, 0.5088814496994019, 1], "metallicFactor" : 0, "roughnessFactor" : 0.5}, "emissiveFactor" : [0, 0, 0], "alphaMode" : "OPAQUE", "doubleSided" : true}, {"name" : "Material.003", "pbrMetallicRoughness" : {"baseColorFactor" : [0.5972021818161011, 0.7304609417915344, 0.7454044222831726, 1], "metallicFactor" : 0, "roughnessFactor" : 0.5}, "emissiveFactor" : [0, 0, 0], "alphaMode" : "OPAQUE", "doubleSided" : true}], "meshes" : [{"primitives" : [{"attributes" : {"POSITION" : 1, "NORMAL" : 2, "TEXCOORD_0" : 3}, "indices" : 0, "material" : 0, "mode" : 4}]}, {"primitives" : [{"attributes" : {"POSITION" : 5, "NORMAL" : 6, "TEXCOORD_0" : 7}, "indices" : 4, "material" : 1, "mode" : 4}]}, {"primitives" : [{"attributes" : {"POSITION" : 9, "NORMAL" : 10, "TEXCOORD_0" : 11}, "indices" : 8, "material" : 2, "mode" : 4}]}], "nodes" : [{"matrix" : [0, 0, 0, 0, 0, 0, 0, 0, 0, 0, 0, 0, 0.15789777040481567, 0.04224056750535965, -0.3903295397758484, 1], "mesh" : 0, "name" : "BezierCircle.002"}, {"matrix" : [0, 0, 0, 0, 0, 0, 0, 0, 0, 0, 0, 0, 0.15789777040481567, 0.04025137796998024, -0.3903295397758484, 1], "mesh" : 1, "name" : "BezierCircle.004"}, {"matrix" : [0, 0, 0, 0, 0, 0, 0, 0, 0, 0, 0, 0, 0.15789777040481567, 0.04671165719628334, -0.3903295397758484, 1], "mesh" : 2, "name" : "BezierCircle.005"}], "scene" : 0, "scenes" : [{"nodes" : [0, 1, 2]}]}