{"accessors" : [{"bufferView" : 0, "byteOffset" : 0, "componentType" : 5123, "count" : 372, "type" : "SCALAR", "max" : [311], "min" : [0]}, {"bufferView" : 1, "byteOffset" : 0, "componentType" : 5126, "count" : 312, "type" : "VEC3", "max" : [1, 1, 1], "min" : [-1, -1, -1], "name" : "POSITION"}, {"bufferView" : 1, "byteOffset" : 12, "componentType" : 5126, "count" : 312, "type" : "VEC3", "max" : [0.9951891303062439, 1.0000044107437134, 0.9951891303062439], "min" : [-0.9951891303062439, -1.0000042915344238, -0.9951891303062439], "name" : "NORMAL"}, {"bufferView" : 1, "byteOffset" : 24, "componentType" : 5126, "count" : 312, "type" : "VEC2", "max" : [1, 0.9900000095367432], "min" : [0, 0], "name" : "TEXCOORD_0"}, {"bufferView" : 0, "byteOffset" : 744, "componentType" : 5123, "count" : 6180, "type" : "SCALAR", "max" : [5167], "min" : [0]}, {"bufferView" : 2, "byteOffset" : 0, "componentType" : 5126, "count" : 5168, "type" : "VEC3", "max" : [7.264431476593018, -0.6193828582763672, 4.7855610847473145], "min" : [-3.354458808898926, -22.403865814208984, -3.8931283950805664], "name" : "POSITION"}, {"bufferView" : 2, "byteOffset" : 12, "componentType" : 5126, "count" : 5168, "type" : "VEC3", "max" : [0.9973723292350769, 0.9969850182533264, 0.9973657727241516], "min" : [-0.9976232051849365, -0.9957935810089111, -0.9985562562942505], "name" : "NORMAL"}, {"bufferView" : 2, "byteOffset" : 24, "componentType" : 5126, "count" : 5168, "type" : "VEC2", "max" : [1, 1], "min" : [0, 0], "name" : "TEXCOORD_0"}], "asset" : {"generator" : "Aspose.3D 22.7", "version" : "2.0"}, "buffers" : [{"uri" : "data:application/octet-stream;base64,", "byteLength" : 222780}], "bufferViews" : [{"buffer" : 0, "byteOffset" : 0, "byteLength" : 13104, "target" : 34963}, {"buffer" : 0, "byteOffset" : 13108, "byteLength" : 11904, "byteStride" : 32, "target" : 34962}, {"buffer" : 0, "byteOffset" : 25016, "byteLength" : 197760, "byteStride" : 32, "target" : 34962}], "materials" : [{"name" : "Material.004", "pbrMetallicRoughness" : {"baseColorFactor" : [0.04654678702354431, 0.20441031455993652, 0.8000000715255737, 1], "metallicFactor" : 0, "roughnessFactor" : 0.5}, "emissiveFactor" : [0, 0, 0], "alphaMode" : "OPAQUE", "doubleSided" : true}, {"name" : "Material.003", "pbrMetallicRoughness" : {"baseColorFactor" : [0.5972021818161011, 0.7304609417915344, 0.7454044222831726, 1], "metallicFactor" : 0, "roughnessFactor" : 0.5}, "emissiveFactor" : [0, 0, 0], "alphaMode" : "OPAQUE", "doubleSided" : true}], "meshes" : [{"primitives" : [{"attributes" : {"POSITION" : 1, "NORMAL" : 2, "TEXCOORD_0" : 3}, "indices" : 0, "material" : 0, "mode" : 4}, {"attributes" : {"POSITION" : 5, "NORMAL" : 6, "TEXCOORD_0" : 7}, "indices" : 4, "material" : 1, "mode" : 4}]}], "nodes" : [{"matrix" : [0, 0, 0, 0, 0, 0, 0, 0, 0, 0, 0, 0, -0.12301874160766602, 0.046923138201236725, -0.16324493288993835, 1], "mesh" : 0, "name" : "Cylinder.013"}], "scene" : 0, "scenes" : [{"nodes" : [0]}]}