{"accessors" : [{"bufferView" : 0, "byteOffset" : 0, "componentType" : 5123, "count" : 10200, "type" : "SCALAR", "max" : [8579], "min" : [0]}, {"bufferView" : 1, "byteOffset" : 0, "componentType" : 5126, "count" : 8580, "type" : "VEC3", "max" : [0.1467091143131256, 0.017513379454612732, 0.542397677898407], "min" : [-0.13533860445022583, -0.01781228929758072, -0.5376778244972229], "name" : "POSITION"}, {"bufferView" : 1, "byteOffset" : 12, "componentType" : 5126, "count" : 8580, "type" : "VEC3", "max" : [1.0000044107437134, 1.0000044107437134, 0.9872507452964783], "min" : [-1.0000044107437134, -1.0000044107437134, -1.0000044107437134], "name" : "NORMAL"}, {"bufferView" : 1, "byteOffset" : 24, "componentType" : 5126, "count" : 8580, "type" : "VEC2", "max" : [0, 1], "min" : [0, 1], "name" : "TEXCOORD_0"}, {"bufferView" : 0, "byteOffset" : 20400, "componentType" : 5123, "count" : 10200, "type" : "SCALAR", "max" : [8579], "min" : [0]}, {"bufferView" : 2, "byteOffset" : 0, "componentType" : 5126, "count" : 8580, "type" : "VEC3", "max" : [0.14180827140808105, 0.030393894761800766, 0.5330909490585327], "min" : [-0.14023944735527039, -0.004931773990392685, -0.5469845533370972], "name" : "POSITION"}, {"bufferView" : 2, "byteOffset" : 12, "componentType" : 5126, "count" : 8580, "type" : "VEC3", "max" : [1.0000044107437134, 1.0000044107437134, 1.0000044107437134], "min" : [-1.0000044107437134, -1.0000044107437134, -1.0000042915344238], "name" : "NORMAL"}, {"bufferView" : 2, "byteOffset" : 24, "componentType" : 5126, "count" : 8580, "type" : "VEC2", "max" : [0, 1], "min" : [0, 1], "name" : "TEXCOORD_0"}, {"bufferView" : 0, "byteOffset" : 40800, "componentType" : 5123, "count" : 10200, "type" : "SCALAR", "max" : [8579], "min" : [0]}, {"bufferView" : 3, "byteOffset" : 0, "componentType" : 5126, "count" : 8580, "type" : "VEC3", "max" : [0.1467091143131256, 0.017513379454612732, 0.542397677898407], "min" : [-0.13533860445022583, -0.01781228929758072, -0.5376778244972229], "name" : "POSITION"}, {"bufferView" : 3, "byteOffset" : 12, "componentType" : 5126, "count" : 8580, "type" : "VEC3", "max" : [1.0000044107437134, 1.0000044107437134, 0.9872507452964783], "min" : [-1.0000044107437134, -1.0000044107437134, -1.0000044107437134], "name" : "NORMAL"}, {"bufferView" : 3, "byteOffset" : 24, "componentType" : 5126, "count" : 8580, "type" : "VEC2", "max" : [0, 1], "min" : [0, 1], "name" : "TEXCOORD_0"}, {"bufferView" : 0, "byteOffset" : 61200, "componentType" : 5123, "count" : 10200, "type" : "SCALAR", "max" : [8579], "min" : [0]}, {"bufferView" : 4, "byteOffset" : 0, "componentType" : 5126, "count" : 8580, "type" : "VEC3", "max" : [0.1467091143131256, 0.017513379454612732, 0.542397677898407], "min" : [-0.13533860445022583, -0.01781228929758072, -0.5376778244972229], "name" : "POSITION"}, {"bufferView" : 4, "byteOffset" : 12, "componentType" : 5126, "count" : 8580, "type" : "VEC3", "max" : [1.0000044107437134, 1.0000044107437134, 0.9872507452964783], "min" : [-1.0000044107437134, -1.0000044107437134, -1.0000044107437134], "name" : "NORMAL"}, {"bufferView" : 4, "byteOffset" : 24, "componentType" : 5126, "count" : 8580, "type" : "VEC2", "max" : [0, 1], "min" : [0, 1], "name" : "TEXCOORD_0"}, {"bufferView" : 0, "byteOffset" : 81600, "componentType" : 5123, "count" : 10200, "type" : "SCALAR", "max" : [8579], "min" : [0]}, {"bufferView" : 5, "byteOffset" : 0, "componentType" : 5126, "count" : 8580, "type" : "VEC3", "max" : [0.1467091143131256, 0.017513379454612732, 0.542397677898407], "min" : [-0.13533860445022583, -0.01781228929758072, -0.5376778244972229], "name" : "POSITION"}, {"bufferView" : 5, "byteOffset" : 12, "componentType" : 5126, "count" : 8580, "type" : "VEC3", "max" : [1.0000044107437134, 1.0000044107437134, 0.9872507452964783], "min" : [-1.0000044107437134, -1.0000044107437134, -1.0000044107437134], "name" : "NORMAL"}, {"bufferView" : 5, "byteOffset" : 24, "componentType" : 5126, "count" : 8580, "type" : "VEC2", "max" : [0, 1], "min" : [0, 1], "name" : "TEXCOORD_0"}, {"bufferView" : 0, "byteOffset" : 102000, "componentType" : 5123, "count" : 10200, "type" : "SCALAR", "max" : [8579], "min" : [0]}, {"bufferView" : 6, "byteOffset" : 0, "componentType" : 5126, "count" : 8580, "type" : "VEC3", "max" : [0.1467091143131256, 0.017513379454612732, 0.542397677898407], "min" : [-0.13533860445022583, -0.01781228929758072, -0.5376778244972229], "name" : "POSITION"}, {"bufferView" : 6, "byteOffset" : 12, "componentType" : 5126, "count" : 8580, "type" : "VEC3", "max" : [1.0000044107437134, 1.0000044107437134, 0.9872507452964783], "min" : [-1.0000044107437134, -1.0000044107437134, -1.0000044107437134], "name" : "NORMAL"}, {"bufferView" : 6, "byteOffset" : 24, "componentType" : 5126, "count" : 8580, "type" : "VEC2", "max" : [0, 1], "min" : [0, 1], "name" : "TEXCOORD_0"}], "asset" : {"generator" : "Aspose.3D 22.7", "version" : "2.0"}, "buffers" : [{"uri" : "data:application/octet-stream;base64,", "byteLength" : 2080828}], "bufferViews" : [{"buffer" : 0, "byteOffset" : 0, "byteLength" : 122400, "target" : 34963}, {"buffer" : 0, "byteOffset" : 122404, "byteLength" : 326400, "byteStride" : 32, "target" : 34962}, {"buffer" : 0, "byteOffset" : 448808, "byteLength" : 326400, "byteStride" : 32, "target" : 34962}, {"buffer" : 0, "byteOffset" : 775212, "byteLength" : 326400, "byteStride" : 32, "target" : 34962}, {"buffer" : 0, "byteOffset" : 1101616, "byteLength" : 326400, "byteStride" : 32, "target" : 34962}, {"buffer" : 0, "byteOffset" : 1428020, "byteLength" : 326400, "byteStride" : 32, "target" : 34962}, {"buffer" : 0, "byteOffset" : 1754424, "byteLength" : 326400, "byteStride" : 32, "target" : 34962}], "materials" : [{"name" : "Material.002", "pbrMetallicRoughness" : {"baseColorFactor" : [0.23074007034301758, 0.49693310260772705, 0.5088814496994019, 1], "metallicFactor" : 0, "roughnessFactor" : 0.5}, "emissiveFactor" : [0, 0, 0], "alphaMode" : "OPAQUE", "doubleSided" : true}, {"name" : "Material.002", "pbrMetallicRoughness" : {"baseColorFactor" : [0.23074007034301758, 0.49693310260772705, 0.5088814496994019, 1], "metallicFactor" : 0, "roughnessFactor" : 0.5}, "emissiveFactor" : [0, 0, 0], "alphaMode" : "OPAQUE", "doubleSided" : true}, {"name" : "Material.002", "pbrMetallicRoughness" : {"baseColorFactor" : [0.23074007034301758, 0.49693310260772705, 0.5088814496994019, 1], "metallicFactor" : 0, "roughnessFactor" : 0.5}, "emissiveFactor" : [0, 0, 0], "alphaMode" : "OPAQUE", "doubleSided" : true}, {"name" : "Material.002", "pbrMetallicRoughness" : {"baseColorFactor" : [0.23074007034301758, 0.49693310260772705, 0.5088814496994019, 1], "metallicFactor" : 0, "roughnessFactor" : 0.5}, "emissiveFactor" : [0, 0, 0], "alphaMode" : "OPAQUE", "doubleSided" : true}, {"name" : "Material.002", "pbrMetallicRoughness" : {"baseColorFactor" : [0.23074007034301758, 0.49693310260772705, 0.5088814496994019, 1], "metallicFactor" : 0, "roughnessFactor" : 0.5}, "emissiveFactor" : [0, 0, 0], "alphaMode" : "OPAQUE", "doubleSided" : true}, {"name" : "Material.002", "pbrMetallicRoughness" : {"baseColorFactor" : [0.23074007034301758, 0.49693310260772705, 0.5088814496994019, 1], "metallicFactor" : 0, "roughnessFactor" : 0.5}, "emissiveFactor" : [0, 0, 0], "alphaMode" : "OPAQUE", "doubleSided" : true}], "meshes" : [{"primitives" : [{"attributes" : {"POSITION" : 1, "NORMAL" : 2, "TEXCOORD_0" : 3}, "indices" : 0, "material" : 0, "mode" : 4}]}, {"primitives" : [{"attributes" : {"POSITION" : 5, "NORMAL" : 6, "TEXCOORD_0" : 7}, "indices" : 4, "material" : 1, "mode" : 4}]}, {"primitives" : [{"attributes" : {"POSITION" : 9, "NORMAL" : 10, "TEXCOORD_0" : 11}, "indices" : 8, "material" : 2, "mode" : 4}]}, {"primitives" : [{"attributes" : {"POSITION" : 13, "NORMAL" : 14, "TEXCOORD_0" : 15}, "indices" : 12, "material" : 3, "mode" : 4}]}, {"primitives" : [{"attributes" : {"POSITION" : 17, "NORMAL" : 18, "TEXCOORD_0" : 19}, "indices" : 16, "material" : 4, "mode" : 4}]}, {"primitives" : [{"attributes" : {"POSITION" : 21, "NORMAL" : 22, "TEXCOORD_0" : 23}, "indices" : 20, "material" : 5, "mode" : 4}]}], "nodes" : [{"matrix" : [0, 0, 0, 0, 0, 0, 0, 0, 0, 0, 0, 0, -0.13738225400447845, 0.055576033890247345, -0.03392569720745087, 1], "mesh" : 0, "name" : "BezierCurve"}, {"matrix" : [0, 0, 0, 0, 0, 0, 0, 0, 0, 0, 0, 0, -0.0420016348361969, 0.07057951390743256, -0.03300570696592331, 1], "mesh" : 1, "name" : "BezierCurve.001"}, {"matrix" : [0, 0, 0, 0, 0, 0, 0, 0, 0, 0, 0, 0, -0.07512885332107544, 0.02574533224105835, -0.07931297272443771, 1], "mesh" : 2, "name" : "BezierCurve.002"}, {"matrix" : [0, 0, 0, 0, 0, 0, 0, 0, 0, 0, 0, 0, -0.16898569464683533, 0.008793334476649761, -0.05788016319274902, 1], "mesh" : 3, "name" : "BezierCurve.003"}, {"matrix" : [0, 0, 0, 0, 0, 0, 0, 0, 0, 0, 0, 0, -0.11328451335430145, 0.021631432697176933, -0.07061304152011871, 1], "mesh" : 4, "name" : "BezierCurve.004"}, {"matrix" : [0, 0, 0, 0, 0, 0, 0, 0, 0, 0, 0, 0, -0.019346844404935837, 0.015309848822653294, -0.06195822358131409, 1], "mesh" : 5, "name" : "BezierCurve.005"}], "scene" : 0, "scenes" : [{"nodes" : [0, 1, 2, 3, 4, 5]}]}