{"accessors" : [{"bufferView" : 0, "byteOffset" : 0, "componentType" : 5123, "count" : 20850, "type" : "SCALAR", "max" : [17531], "min" : [0]}, {"bufferView" : 1, "byteOffset" : 0, "componentType" : 5126, "count" : 17532, "type" : "VEC3", "max" : [3.1647863388061523, 0.8979570269584656, 3.2811460494995117], "min" : [-3.2852749824523926, -17.503753662109375, -3.407155990600586], "name" : "POSITION"}, {"bufferView" : 1, "byteOffset" : 12, "componentType" : 5126, "count" : 17532, "type" : "VEC3", "max" : [0.9999966621398926, 0.9997791051864624, 0.9995525479316711], "min" : [-0.9999966621398926, -0.9998464584350586, -0.999552309513092], "name" : "NORMAL"}, {"bufferView" : 1, "byteOffset" : 24, "componentType" : 5126, "count" : 17532, "type" : "VEC2", "max" : [1.0000001192092896, 1], "min" : [0, 0], "name" : "TEXCOORD_0"}, {"bufferView" : 0, "byteOffset" : 41700, "componentType" : 5123, "count" : 20850, "type" : "SCALAR", "max" : [17531], "min" : [0]}, {"bufferView" : 2, "byteOffset" : 0, "componentType" : 5126, "count" : 17532, "type" : "VEC3", "max" : [3.1647863388061523, 0.8979570269584656, 3.2811460494995117], "min" : [-3.2852749824523926, -17.503753662109375, -3.407155990600586], "name" : "POSITION"}, {"bufferView" : 2, "byteOffset" : 12, "componentType" : 5126, "count" : 17532, "type" : "VEC3", "max" : [0.9999966621398926, 0.9997791051864624, 0.9995525479316711], "min" : [-0.9999966621398926, -0.9998464584350586, -0.999552309513092], "name" : "NORMAL"}, {"bufferView" : 2, "byteOffset" : 24, "componentType" : 5126, "count" : 17532, "type" : "VEC2", "max" : [1.0000001192092896, 1], "min" : [0, 0], "name" : "TEXCOORD_0"}, {"bufferView" : 0, "byteOffset" : 83400, "componentType" : 5123, "count" : 20850, "type" : "SCALAR", "max" : [17531], "min" : [0]}, {"bufferView" : 3, "byteOffset" : 0, "componentType" : 5126, "count" : 17532, "type" : "VEC3", "max" : [3.1647863388061523, 0.8979570269584656, 3.2811460494995117], "min" : [-3.2852749824523926, -17.503753662109375, -3.407155990600586], "name" : "POSITION"}, {"bufferView" : 3, "byteOffset" : 12, "componentType" : 5126, "count" : 17532, "type" : "VEC3", "max" : [0.9999966621398926, 0.9997791051864624, 0.9995525479316711], "min" : [-0.9999966621398926, -0.9998464584350586, -0.999552309513092], "name" : "NORMAL"}, {"bufferView" : 3, "byteOffset" : 24, "componentType" : 5126, "count" : 17532, "type" : "VEC2", "max" : [1.0000001192092896, 1], "min" : [0, 0], "name" : "TEXCOORD_0"}], "asset" : {"generator" : "Aspose.3D 22.7", "version" : "2.0"}, "buffers" : [{"uri" : "data:application/octet-stream;base64,", "byteLength" : 2126716}], "bufferViews" : [{"buffer" : 0, "byteOffset" : 0, "byteLength" : 125100, "target" : 34963}, {"buffer" : 0, "byteOffset" : 125104, "byteLength" : 667200, "byteStride" : 32, "target" : 34962}, {"buffer" : 0, "byteOffset" : 792308, "byteLength" : 667200, "byteStride" : 32, "target" : 34962}, {"buffer" : 0, "byteOffset" : 1459512, "byteLength" : 667200, "byteStride" : 32, "target" : 34962}], "materials" : [{"name" : "Material.004", "pbrMetallicRoughness" : {"baseColorFactor" : [0.04654678702354431, 0.20441031455993652, 0.8000000715255737, 1], "metallicFactor" : 0, "roughnessFactor" : 0.5}, "emissiveFactor" : [0, 0, 0], "alphaMode" : "OPAQUE", "doubleSided" : true}, {"name" : "Material.004", "pbrMetallicRoughness" : {"baseColorFactor" : [0.04654678702354431, 0.20441031455993652, 0.8000000715255737, 1], "metallicFactor" : 0, "roughnessFactor" : 0.5}, "emissiveFactor" : [0, 0, 0], "alphaMode" : "OPAQUE", "doubleSided" : true}, {"name" : "Material.004", "pbrMetallicRoughness" : {"baseColorFactor" : [0.04654678702354431, 0.20441031455993652, 0.8000000715255737, 1], "metallicFactor" : 0, "roughnessFactor" : 0.5}, "emissiveFactor" : [0, 0, 0], "alphaMode" : "OPAQUE", "doubleSided" : true}], "meshes" : [{"primitives" : [{"attributes" : {"POSITION" : 1, "NORMAL" : 2, "TEXCOORD_0" : 3}, "indices" : 0, "material" : 0, "mode" : 4}]}, {"primitives" : [{"attributes" : {"POSITION" : 5, "NORMAL" : 6, "TEXCOORD_0" : 7}, "indices" : 4, "material" : 1, "mode" : 4}]}, {"primitives" : [{"attributes" : {"POSITION" : 9, "NORMAL" : 10, "TEXCOORD_0" : 11}, "indices" : 8, "material" : 2, "mode" : 4}]}], "nodes" : [{"matrix" : [0.0037128755346853555, -0.00010148364549783031, -0.009924309641647599, 0, -5.3563432229511204E-05, -0.0013456956260113632, -6.278348240811083E-06, 0, -0.0035900992580258154, 0.0001491720891866418, -0.0013446508714997606, 0, 0.17935030162334442, 0.047254778444767, -0.29098767042160034, 1], "mesh" : 0, "name" : "Sphere.002"}, {"matrix" : [0.0037128755346853555, -0.00010148364549783031, -0.009924309641647599, 0, -5.3563432229511204E-05, -0.0013456956260113632, -6.278348240811083E-06, 0, -0.0035900992580258154, 0.0001491720891866418, -0.0013446508714997606, 0, 0.07748803496360779, 0.09386507421731949, -0.3569032549858093, 1], "mesh" : 1, "name" : "Sphere.004"}, {"matrix" : [0.0037128755346853555, -0.00010148364549783031, -0.009924309641647599, 0, -5.3563432229511204E-05, -0.0013456956260113632, -6.278348240811083E-06, 0, -0.0035900992580258154, 0.0001491720891866418, -0.0013446508714997606, 0, 0.10537074506282806, 0.1899891048669815, -0.12385959178209305, 1], "mesh" : 2, "name" : "Sphere.005"}], "scene" : 0, "scenes" : [{"nodes" : [0, 1, 2]}]}