{"accessors" : [{"bufferView" : 0, "byteOffset" : 0, "componentType" : 5123, "count" : 780, "type" : "SCALAR", "max" : [655], "min" : [0]}, {"bufferView" : 1, "byteOffset" : 0, "componentType" : 5126, "count" : 656, "type" : "VEC3", "max" : [1.2372150421142578, 1.1556439399719238, 1.0000001192092896], "min" : [-1.2372148036956787, -1.1556439399719238, -1.0000001192092896], "name" : "POSITION"}, {"bufferView" : 1, "byteOffset" : 12, "componentType" : 5126, "count" : 656, "type" : "VEC3", "max" : [1.0000044107437134, 1.0000044107437134, 1.0000044107437134], "min" : [-1.0000044107437134, -1.0000044107437134, -1.0000044107437134], "name" : "NORMAL"}, {"bufferView" : 1, "byteOffset" : 24, "componentType" : 5126, "count" : 656, "type" : "VEC2", "max" : [1, 1], "min" : [0, 0], "name" : "TEXCOORD_0"}, {"bufferView" : 0, "byteOffset" : 1560, "componentType" : 5123, "count" : 5628, "type" : "SCALAR", "max" : [5011], "min" : [0]}, {"bufferView" : 2, "byteOffset" : 0, "componentType" : 5126, "count" : 5012, "type" : "VEC3", "max" : [0.9700700044631958, 2.028773069381714, 0.10991395264863968], "min" : [-1.0605627298355103, 1.5950653553009033, -0.07609027624130249], "name" : "POSITION"}, {"bufferView" : 2, "byteOffset" : 12, "componentType" : 5126, "count" : 5012, "type" : "VEC3", "max" : [1.0000044107437134, 1.3743311910729972E-07, 1.0000044107437134], "min" : [-1.0000044107437134, -1.0000044107437134, -1.0000044107437134], "name" : "NORMAL"}, {"bufferView" : 2, "byteOffset" : 24, "componentType" : 5126, "count" : 5012, "type" : "VEC2", "max" : [1, 1], "min" : [0, 1], "name" : "TEXCOORD_0"}], "asset" : {"generator" : "Aspose.3D 22.7", "version" : "2.0"}, "buffers" : [{"uri" : "data:application/octet-stream;base64,", "byteLength" : 217884}], "bufferViews" : [{"buffer" : 0, "byteOffset" : 0, "byteLength" : 12816, "target" : 34963}, {"buffer" : 0, "byteOffset" : 12820, "byteLength" : 24960, "byteStride" : 32, "target" : 34962}, {"buffer" : 0, "byteOffset" : 37784, "byteLength" : 180096, "byteStride" : 32, "target" : 34962}], "materials" : [{"name" : "Material.002", "pbrMetallicRoughness" : {"baseColorFactor" : [0.23074007034301758, 0.49693310260772705, 0.5088814496994019, 1], "metallicFactor" : 0, "roughnessFactor" : 0.5}, "emissiveFactor" : [0, 0, 0], "alphaMode" : "OPAQUE", "doubleSided" : true}, {"name" : "Material.005", "pbrMetallicRoughness" : {"baseColorFactor" : [0.016807381063699722, 0.0368894599378109, 0.04373503103852272, 1], "metallicFactor" : 0, "roughnessFactor" : 0.5}, "emissiveFactor" : [0, 0, 0], "alphaMode" : "OPAQUE", "doubleSided" : true}], "meshes" : [{"primitives" : [{"attributes" : {"POSITION" : 1, "NORMAL" : 2, "TEXCOORD_0" : 3}, "indices" : 0, "material" : 0, "mode" : 4}, {"attributes" : {"POSITION" : 5, "NORMAL" : 6, "TEXCOORD_0" : 7}, "indices" : 4, "material" : 1, "mode" : 4}]}], "nodes" : [{"matrix" : [0, 0, 0, 0, 0, 0, 0, 0, 0, 0, 0, 0, -0.06823401153087616, 0.04709850251674652, -0.272734671831131, 1], "mesh" : 0, "name" : "Cylinder.021"}], "scene" : 0, "scenes" : [{"nodes" : [0]}]}