{
    "asset" : {
        "generator" : "Khronos glTF Blender I/O v1.6.16",
        "version" : "2.0"
    },
    "scene" : 0,
    "scenes" : [
        {
            "name" : "Scene",
            "nodes" : [
                0,
                1,
                2,
                3,
                4
            ]
        }
    ],
    "nodes" : [
        {
            "name" : "Light",
            "rotation" : [
                0.16907575726509094,
                0.7558803558349609,
                -0.27217137813568115,
                0.570947527885437
            ],
            "translation" : [
                4.076245307922363,
                5.903861999511719,
                -1.0054539442062378
            ]
        },
        {
            "name" : "Camera",
            "rotation" : [
                0.483536034822464,
                0.33687159419059753,
                -0.20870360732078552,
                0.7804827094078064
            ],
            "translation" : [
                7.358891487121582,
                4.958309173583984,
                6.925790786743164
            ]
        },
        {
            "mesh" : 0,
            "name" : "BezierCircle",
            "rotation" : [
                0,
                1,
                0,
                7.549790126404332e-08
            ],
            "scale" : [
                0,
                0,
                0
            ],
            "translation" : [
                0,
                0.020431119948625565,
                0
            ]
        },
        {
            "mesh" : 1,
            "name" : "BezierCircle.001",
            "scale" : [
                0,
                0,
                0
            ],
            "translation" : [
                0,
                0.006273986771702766,
                0
            ]
        },
        {
            "mesh" : 2,
            "name" : "BezierCircle.003",
            "scale" : [
                0,
                0,
                0
            ],
            "translation" : [
                0,
                0.03692665696144104,
                0
            ]
        }
    ],
    "animations" : [
        {
            "channels" : [
                {
                    "sampler" : 0,
                    "target" : {
                        "node" : 2,
                        "path" : "scale"
                    }
                }
            ],
            "name" : "BezierCircleAction.002",
            "samplers" : [
                {
                    "input" : 10,
                    "interpolation" : "LINEAR",
                    "output" : 11
                }
            ]
        },
        {
            "channels" : [
                {
                    "sampler" : 0,
                    "target" : {
                        "node" : 3,
                        "path" : "scale"
                    }
                }
            ],
            "name" : "BezierCircle.001Action.001",
            "samplers" : [
                {
                    "input" : 12,
                    "interpolation" : "LINEAR",
                    "output" : 13
                }
            ]
        },
        {
            "channels" : [
                {
                    "sampler" : 0,
                    "target" : {
                        "node" : 4,
                        "path" : "scale"
                    }
                }
            ],
            "name" : "BezierCircle.003Action.001",
            "samplers" : [
                {
                    "input" : 14,
                    "interpolation" : "LINEAR",
                    "output" : 15
                }
            ]
        }
    ],
    "materials" : [
        {
            "doubleSided" : true,
            "name" : "Material.004",
            "pbrMetallicRoughness" : {
                "baseColorFactor" : [
                    0.04654678702354431,
                    0.20441031455993652,
                    0.8000000715255737,
                    1
                ],
                "metallicFactor" : 0,
                "roughnessFactor" : 0.5
            }
        },
        {
            "doubleSided" : true,
            "name" : "Material.002",
            "pbrMetallicRoughness" : {
                "baseColorFactor" : [
                    0.23074007034301758,
                    0.49693310260772705,
                    0.5088814496994019,
                    1
                ],
                "metallicFactor" : 0,
                "roughnessFactor" : 0.5
            }
        },
        {
            "doubleSided" : true,
            "name" : "Material.003",
            "pbrMetallicRoughness" : {
                "baseColorFactor" : [
                    0.5972021818161011,
                    0.7304609417915344,
                    0.7454044222831726,
                    1
                ],
                "metallicFactor" : 0,
                "roughnessFactor" : 0.5
            }
        }
    ],
    "meshes" : [
        {
            "name" : "BezierCircle",
            "primitives" : [
                {
                    "attributes" : {
                        "POSITION" : 0,
                        "NORMAL" : 1,
                        "TEXCOORD_0" : 2
                    },
                    "indices" : 3,
                    "material" : 0
                }
            ]
        },
        {
            "name" : "BezierCircle.001",
            "primitives" : [
                {
                    "attributes" : {
                        "POSITION" : 4,
                        "NORMAL" : 5,
                        "TEXCOORD_0" : 6
                    },
                    "indices" : 3,
                    "material" : 1
                }
            ]
        },
        {
            "name" : "BezierCircle.003",
            "primitives" : [
                {
                    "attributes" : {
                        "POSITION" : 7,
                        "NORMAL" : 8,
                        "TEXCOORD_0" : 9
                    },
                    "indices" : 3,
                    "material" : 2
                }
            ]
        }
    ],
    "accessors" : [
        {
            "bufferView" : 0,
            "componentType" : 5126,
            "count" : 1152,
            "max" : [
                1.1552677154541016,
                0.35334306955337524,
                1.1792399883270264
            ],
            "min" : [
                -1.3379167318344116,
                -0.007710140198469162,
                -1.1069021224975586
            ],
            "type" : "VEC3"
        },
        {
            "bufferView" : 1,
            "componentType" : 5126,
            "count" : 1152,
            "type" : "VEC3"
        },
        {
            "bufferView" : 2,
            "componentType" : 5126,
            "count" : 1152,
            "type" : "VEC2"
        },
        {
            "bufferView" : 3,
            "componentType" : 5123,
            "count" : 2292,
            "type" : "SCALAR"
        },
        {
            "bufferView" : 4,
            "componentType" : 5126,
            "count" : 1152,
            "max" : [
                1.1552677154541016,
                0.35334306955337524,
                1.1792399883270264
            ],
            "min" : [
                -1.3379167318344116,
                -0.007710140198469162,
                -1.1069021224975586
            ],
            "type" : "VEC3"
        },
        {
            "bufferView" : 5,
            "componentType" : 5126,
            "count" : 1152,
            "type" : "VEC3"
        },
        {
            "bufferView" : 6,
            "componentType" : 5126,
            "count" : 1152,
            "type" : "VEC2"
        },
        {
            "bufferView" : 7,
            "componentType" : 5126,
            "count" : 1152,
            "max" : [
                1.1552677154541016,
                0.35334306955337524,
                1.1792399883270264
            ],
            "min" : [
                -1.3379167318344116,
                -0.007710140198469162,
                -1.1069021224975586
            ],
            "type" : "VEC3"
        },
        {
            "bufferView" : 8,
            "componentType" : 5126,
            "count" : 1152,
            "type" : "VEC3"
        },
        {
            "bufferView" : 9,
            "componentType" : 5126,
            "count" : 1152,
            "type" : "VEC2"
        },
        {
            "bufferView" : 10,
            "componentType" : 5126,
            "count" : 40,
            "max" : [
                1.6666666666666667
            ],
            "min" : [
                0.041666666666666664
            ],
            "type" : "SCALAR"
        },
        {
            "bufferView" : 11,
            "componentType" : 5126,
            "count" : 40,
            "type" : "VEC3"
        },
        {
            "bufferView" : 12,
            "componentType" : 5126,
            "count" : 25,
            "max" : [
                1.875
            ],
            "min" : [
                0.875
            ],
            "type" : "SCALAR"
        },
        {
            "bufferView" : 13,
            "componentType" : 5126,
            "count" : 25,
            "type" : "VEC3"
        },
        {
            "bufferView" : 14,
            "componentType" : 5126,
            "count" : 21,
            "max" : [
                2.4583333333333335
            ],
            "min" : [
                1.625
            ],
            "type" : "SCALAR"
        },
        {
            "bufferView" : 15,
            "componentType" : 5126,
            "count" : 21,
            "type" : "VEC3"
        }
    ],
    "bufferViews" : [
        {
            "buffer" : 0,
            "byteLength" : 13824,
            "byteOffset" : 0
        },
        {
            "buffer" : 0,
            "byteLength" : 13824,
            "byteOffset" : 13824
        },
        {
            "buffer" : 0,
            "byteLength" : 9216,
            "byteOffset" : 27648
        },
        {
            "buffer" : 0,
            "byteLength" : 4584,
            "byteOffset" : 36864
        },
        {
            "buffer" : 0,
            "byteLength" : 13824,
            "byteOffset" : 41448
        },
        {
            "buffer" : 0,
            "byteLength" : 13824,
            "byteOffset" : 55272
        },
        {
            "buffer" : 0,
            "byteLength" : 9216,
            "byteOffset" : 69096
        },
        {
            "buffer" : 0,
            "byteLength" : 13824,
            "byteOffset" : 78312
        },
        {
            "buffer" : 0,
            "byteLength" : 13824,
            "byteOffset" : 92136
        },
        {
            "buffer" : 0,
            "byteLength" : 9216,
            "byteOffset" : 105960
        },
        {
            "buffer" : 0,
            "byteLength" : 160,
            "byteOffset" : 115176
        },
        {
            "buffer" : 0,
            "byteLength" : 480,
            "byteOffset" : 115336
        },
        {
            "buffer" : 0,
            "byteLength" : 100,
            "byteOffset" : 115816
        },
        {
            "buffer" : 0,
            "byteLength" : 300,
            "byteOffset" : 115916
        },
        {
            "buffer" : 0,
            "byteLength" : 84,
            "byteOffset" : 116216
        },
        {
            "buffer" : 0,
            "byteLength" : 252,
            "byteOffset" : 116300
        }
    ],
    "buffers" : [
        {
            "byteLength" : 116552,
            "uri" : "data:application/octet-stream;base64,"
        }
    ]
}
