{
    "asset" : {
        "generator" : "Khronos glTF Blender I/O v1.6.16",
        "version" : "2.0"
    },
    "scene" : 0,
    "scenes" : [
        {
            "extras" : {
                "glTF2ExportSettings" : {
                    "export_all_influences" : 0,
                    "export_apply" : 1,
                    "export_cameras" : 1,
                    "export_current_frame" : 0,
                    "export_draco_mesh_compression_enable" : 0,
                    "export_extras" : 1,
                    "export_format" : "GLTF_EMBEDDED",
                    "export_frame_range" : 0,
                    "export_lights" : 1,
                    "export_morph_normal" : 1,
                    "export_morph_tangent" : 1,
                    "export_texture_dir" : "",
                    "export_yup" : 0
                }
            },
            "name" : "Scene",
            "nodes" : [
                0,
                1,
                2,
                3,
                4,
                5
            ]
        }
    ],
    "nodes" : [
        {
            "name" : "BezierCurve.014",
            "scale" : [
                0.30415046215057373,
                0.30415046215057373,
                0.30415046215057373
            ],
            "translation" : [
                -0.02154126763343811,
                0.07553469389677048,
                0.045992374420166016
            ]
        },
        {
            "extras" : {},
            "mesh" : 0,
            "name" : "Sphere.013",
            "rotation" : [
                -0.9997907876968384,
                -0.004166498314589262,
                0.004870458040386438,
                0.019424663856625557
            ],
            "scale" : [
                0.016551751643419266,
                0.005992656573653221,
                0.0021036488469690084
            ],
            "translation" : [
                -0.08521725237369537,
                0.0645969957113266,
                0.02915387786924839
            ]
        },
        {
            "extras" : {},
            "mesh" : 1,
            "name" : "Sphere.002",
            "rotation" : [
                -0.8215938806533813,
                -0.5697214007377625,
                0.015016121789813042,
                0.013249717652797699
            ],
            "scale" : [
                0.01059658732265234,
                0.0038365544751286507,
                0.00134677579626441
            ],
            "translation" : [
                0.17935030162334442,
                0.29098767042160034,
                0.047254778444767
            ]
        },
        {
            "extras" : {},
            "mesh" : 2,
            "name" : "Sphere.004",
            "rotation" : [
                -0.8215938806533813,
                -0.5697214007377625,
                0.015016121789813042,
                0.013249717652797699
            ],
            "scale" : [
                0.01059658732265234,
                0.0038365544751286507,
                0.00134677579626441
            ],
            "translation" : [
                0.07748803496360779,
                0.3569032549858093,
                0.09386507421731949
            ]
        },
        {
            "extras" : {},
            "mesh" : 3,
            "name" : "Sphere.005",
            "rotation" : [
                -0.8215938806533813,
                -0.5697214007377625,
                0.015016121789813042,
                0.013249717652797699
            ],
            "scale" : [
                0.01059658732265234,
                0.0038365544751286507,
                0.00134677579626441
            ],
            "translation" : [
                0.10537074506282806,
                0.12385959178209305,
                0.1899891048669815
            ]
        },
        {
            "name" : "Curve.007",
            "translation" : [
                0.8897922039031982,
                -0.004580643493682146,
                0.0015028308844193816
            ]
        }
    ],
    "animations" : [
        {
            "channels" : [
                {
                    "sampler" : 0,
                    "target" : {
                        "node" : 1,
                        "path" : "rotation"
                    }
                }
            ],
            "name" : "Sphere.013Action.002",
            "samplers" : [
                {
                    "input" : 13,
                    "interpolation" : "LINEAR",
                    "output" : 14
                }
            ]
        }
    ],
    "materials" : [
        {
            "doubleSided" : true,
            "name" : "Material.004",
            "pbrMetallicRoughness" : {
                "baseColorFactor" : [
                    0.04654678702354431,
                    0.20441031455993652,
                    0.8000000715255737,
                    1
                ],
                "metallicFactor" : 0,
                "roughnessFactor" : 0.5
            }
        }
    ],
    "meshes" : [
        {
            "name" : "Sphere.016",
            "primitives" : [
                {
                    "attributes" : {
                        "POSITION" : 0,
                        "NORMAL" : 1,
                        "TEXCOORD_0" : 2
                    },
                    "indices" : 3,
                    "material" : 0
                }
            ]
        },
        {
            "name" : "Sphere.061",
            "primitives" : [
                {
                    "attributes" : {
                        "POSITION" : 4,
                        "NORMAL" : 5,
                        "TEXCOORD_0" : 6
                    },
                    "indices" : 3,
                    "material" : 0
                }
            ]
        },
        {
            "name" : "Sphere.062",
            "primitives" : [
                {
                    "attributes" : {
                        "POSITION" : 7,
                        "NORMAL" : 8,
                        "TEXCOORD_0" : 9
                    },
                    "indices" : 3,
                    "material" : 0
                }
            ]
        },
        {
            "name" : "Sphere.063",
            "primitives" : [
                {
                    "attributes" : {
                        "POSITION" : 10,
                        "NORMAL" : 11,
                        "TEXCOORD_0" : 12
                    },
                    "indices" : 3,
                    "material" : 0
                }
            ]
        }
    ],
    "accessors" : [
        {
            "bufferView" : 0,
            "componentType" : 5126,
            "count" : 14016,
            "max" : [
                3.1647863388061523,
                3.407155990600586,
                0.8979570269584656
            ],
            "min" : [
                -3.2852749824523926,
                -3.2811460494995117,
                -17.503753662109375
            ],
            "type" : "VEC3"
        },
        {
            "bufferView" : 1,
            "componentType" : 5126,
            "count" : 14016,
            "type" : "VEC3"
        },
        {
            "bufferView" : 2,
            "componentType" : 5126,
            "count" : 14016,
            "type" : "VEC2"
        },
        {
            "bufferView" : 3,
            "componentType" : 5123,
            "count" : 20850,
            "type" : "SCALAR"
        },
        {
            "bufferView" : 4,
            "componentType" : 5126,
            "count" : 14016,
            "max" : [
                3.1647863388061523,
                3.407155990600586,
                0.8979570269584656
            ],
            "min" : [
                -3.2852749824523926,
                -3.2811460494995117,
                -17.503753662109375
            ],
            "type" : "VEC3"
        },
        {
            "bufferView" : 5,
            "componentType" : 5126,
            "count" : 14016,
            "type" : "VEC3"
        },
        {
            "bufferView" : 6,
            "componentType" : 5126,
            "count" : 14016,
            "type" : "VEC2"
        },
        {
            "bufferView" : 7,
            "componentType" : 5126,
            "count" : 14016,
            "max" : [
                3.1647863388061523,
                3.407155990600586,
                0.8979570269584656
            ],
            "min" : [
                -3.2852749824523926,
                -3.2811460494995117,
                -17.503753662109375
            ],
            "type" : "VEC3"
        },
        {
            "bufferView" : 8,
            "componentType" : 5126,
            "count" : 14016,
            "type" : "VEC3"
        },
        {
            "bufferView" : 9,
            "componentType" : 5126,
            "count" : 14016,
            "type" : "VEC2"
        },
        {
            "bufferView" : 10,
            "componentType" : 5126,
            "count" : 14016,
            "max" : [
                3.1647863388061523,
                3.407155990600586,
                0.8979570269584656
            ],
            "min" : [
                -3.2852749824523926,
                -3.2811460494995117,
                -17.503753662109375
            ],
            "type" : "VEC3"
        },
        {
            "bufferView" : 11,
            "componentType" : 5126,
            "count" : 14016,
            "type" : "VEC3"
        },
        {
            "bufferView" : 12,
            "componentType" : 5126,
            "count" : 14016,
            "type" : "VEC2"
        },
        {
            "bufferView" : 13,
            "componentType" : 5126,
            "count" : 100,
            "max" : [
                4.541666666666667
            ],
            "min" : [
                0.4166666666666667
            ],
            "type" : "SCALAR"
        },
        {
            "bufferView" : 14,
            "componentType" : 5126,
            "count" : 100,
            "type" : "VEC4"
        }
    ],
    "bufferViews" : [
        {
            "buffer" : 0,
            "byteLength" : 168192,
            "byteOffset" : 0
        },
        {
            "buffer" : 0,
            "byteLength" : 168192,
            "byteOffset" : 168192
        },
        {
            "buffer" : 0,
            "byteLength" : 112128,
            "byteOffset" : 336384
        },
        {
            "buffer" : 0,
            "byteLength" : 41700,
            "byteOffset" : 448512
        },
        {
            "buffer" : 0,
            "byteLength" : 168192,
            "byteOffset" : 490212
        },
        {
            "buffer" : 0,
            "byteLength" : 168192,
            "byteOffset" : 658404
        },
        {
            "buffer" : 0,
            "byteLength" : 112128,
            "byteOffset" : 826596
        },
        {
            "buffer" : 0,
            "byteLength" : 168192,
            "byteOffset" : 938724
        },
        {
            "buffer" : 0,
            "byteLength" : 168192,
            "byteOffset" : 1106916
        },
        {
            "buffer" : 0,
            "byteLength" : 112128,
            "byteOffset" : 1275108
        },
        {
            "buffer" : 0,
            "byteLength" : 168192,
            "byteOffset" : 1387236
        },
        {
            "buffer" : 0,
            "byteLength" : 168192,
            "byteOffset" : 1555428
        },
        {
            "buffer" : 0,
            "byteLength" : 112128,
            "byteOffset" : 1723620
        },
        {
            "buffer" : 0,
            "byteLength" : 400,
            "byteOffset" : 1835748
        },
        {
            "buffer" : 0,
            "byteLength" : 1600,
            "byteOffset" : 1836148
        }
    ],
    "buffers" : [
        {
            "byteLength" : 1837748,
            "uri" : "data:application/octet-stream;base64,"
        }
    ]
}
